# Blender 3.3.1
# www.blender.org
mtllib SegmentSphere10.mtl
o Sphere
v 0.181636 0.951057 -0.250000
v 0.345491 0.809017 -0.475528
v 0.475528 0.587785 -0.654509
v 0.559017 0.309017 -0.769421
v 0.587785 0.000000 -0.809017
v 0.559017 -0.309017 -0.769421
v 0.475528 -0.587785 -0.654509
v 0.345491 -0.809017 -0.475528
v 0.181636 -0.951057 -0.250000
v 0.293893 0.951057 -0.095492
v 0.559017 0.809017 -0.181636
v 0.769421 0.587785 -0.250000
v 0.904509 0.309017 -0.293893
v 0.951057 0.000000 -0.309017
v 0.904509 -0.309017 -0.293893
v 0.769421 -0.587785 -0.250000
v 0.559017 -0.809017 -0.181636
v 0.293893 -0.951057 -0.095492
v 0.293893 0.951057 0.095491
v 0.559017 0.809017 0.181636
v 0.769421 0.587785 0.250000
v 0.904509 0.309017 0.293893
v 0.951057 0.000000 0.309017
v 0.904509 -0.309017 0.293893
v 0.769421 -0.587785 0.250000
v 0.559017 -0.809017 0.181636
v 0.293893 -0.951057 0.095491
v 0.181636 0.951057 0.250000
v 0.345492 0.809017 0.475528
v 0.475528 0.587785 0.654508
v 0.559017 0.309017 0.769421
v 0.587785 0.000000 0.809017
v 0.559017 -0.309017 0.769421
v 0.475528 -0.587785 0.654508
v 0.345492 -0.809017 0.475528
v 0.181636 -0.951057 0.250000
v 0.000000 0.951057 0.309017
v 0.000000 0.809017 0.587785
v 0.000000 0.587785 0.809017
v 0.000000 0.309017 0.951057
v 0.000000 0.000000 1.000000
v 0.000000 -0.309017 0.951057
v 0.000000 -0.587785 0.809017
v 0.000000 -0.809017 0.587785
v 0.000000 -0.951057 0.309017
v 0.000000 1.000000 0.000000
v -0.181636 0.951057 0.250000
v -0.345491 0.809017 0.475528
v -0.475528 0.587785 0.654509
v -0.559017 0.309017 0.769421
v -0.587785 0.000000 0.809017
v -0.559017 -0.309017 0.769421
v -0.475528 -0.587785 0.654509
v -0.345491 -0.809017 0.475528
v -0.181636 -0.951057 0.250000
v -0.293893 0.951057 0.095492
v -0.559017 0.809017 0.181636
v -0.769421 0.587785 0.250000
v -0.904508 0.309017 0.293893
v -0.951057 0.000000 0.309017
v -0.904508 -0.309017 0.293893
v -0.769421 -0.587785 0.250000
v -0.559017 -0.809017 0.181636
v -0.293893 -0.951057 0.095492
v 0.000000 -1.000000 0.000000
v -0.293893 0.951057 -0.095491
v -0.559017 0.809017 -0.181636
v -0.769421 0.587785 -0.250000
v -0.904509 0.309017 -0.293893
v -0.951057 0.000000 -0.309017
v -0.904509 -0.309017 -0.293893
v -0.769421 -0.587785 -0.250000
v -0.559017 -0.809017 -0.181636
v -0.293893 -0.951057 -0.095491
v -0.181636 0.951057 -0.250000
v -0.345492 0.809017 -0.475528
v -0.475528 0.587785 -0.654508
v -0.559017 0.309017 -0.769421
v -0.587785 0.000000 -0.809017
v -0.559017 -0.309017 -0.769421
v -0.475528 -0.587785 -0.654508
v -0.345492 -0.809017 -0.475528
v -0.181636 -0.951057 -0.250000
v -0.000000 0.951057 -0.309017
v -0.000000 0.809017 -0.587785
v -0.000000 0.587785 -0.809017
v -0.000000 0.309017 -0.951056
v -0.000000 0.000000 -1.000000
v -0.000000 -0.309017 -0.951056
v -0.000000 -0.587785 -0.809017
v -0.000000 -0.809017 -0.587785
v -0.000000 -0.951057 -0.309017
vn 0.2781 0.4361 -0.8559
vn 0.0508 0.9864 -0.1562
vn 0.2239 -0.6892 -0.6892
vn 0.3056 0.1490 -0.9404
vn 0.1459 0.8815 -0.4491
vn 0.1459 -0.8815 -0.4491
vn 0.3056 -0.1490 -0.9404
vn 0.2239 0.6892 -0.6892
vn 0.0508 -0.9864 -0.1562
vn 0.2781 -0.4361 -0.8559
vn 0.1329 0.9864 -0.0966
vn 0.5862 -0.6892 -0.4259
vn 0.8000 0.1490 -0.5812
vn 0.3821 0.8815 -0.2776
vn 0.3821 -0.8815 -0.2776
vn 0.8000 -0.1490 -0.5812
vn 0.5862 0.6892 -0.4259
vn 0.1329 -0.9864 -0.0966
vn 0.7280 -0.4361 -0.5290
vn 0.7280 0.4361 -0.5290
vn 0.8999 -0.4361 -0.0000
vn 0.8999 0.4361 -0.0000
vn 0.1643 0.9864 -0.0000
vn 0.7246 -0.6892 -0.0000
vn 0.9888 0.1490 -0.0000
vn 0.4722 0.8815 -0.0000
vn 0.4722 -0.8815 -0.0000
vn 0.9888 -0.1490 -0.0000
vn 0.7246 0.6892 -0.0000
vn 0.1643 -0.9864 -0.0000
vn 0.5862 0.6892 0.4259
vn 0.1329 -0.9864 0.0966
vn 0.7280 -0.4361 0.5290
vn 0.7280 0.4361 0.5290
vn 0.1329 0.9864 0.0966
vn 0.5862 -0.6892 0.4259
vn 0.8000 0.1490 0.5812
vn 0.3821 0.8815 0.2776
vn 0.3821 -0.8815 0.2776
vn 0.8000 -0.1490 0.5812
vn 0.3056 -0.1490 0.9404
vn 0.2239 0.6892 0.6892
vn 0.0508 -0.9864 0.1562
vn 0.2781 -0.4361 0.8559
vn 0.2781 0.4361 0.8559
vn 0.0508 0.9864 0.1562
vn 0.2239 -0.6892 0.6892
vn 0.3056 0.1490 0.9404
vn 0.1459 0.8815 0.4491
vn 0.1459 -0.8815 0.4491
vn -0.1459 0.8815 0.4491
vn -0.1459 -0.8815 0.4491
vn -0.3056 -0.1490 0.9404
vn -0.2239 0.6892 0.6892
vn -0.0508 -0.9864 0.1562
vn -0.2781 -0.4361 0.8559
vn -0.2781 0.4361 0.8559
vn -0.0508 0.9864 0.1562
vn -0.2239 -0.6892 0.6892
vn -0.3056 0.1490 0.9404
vn -0.5862 -0.6892 0.4259
vn -0.8000 0.1490 0.5812
vn -0.3821 0.8815 0.2776
vn -0.3821 -0.8815 0.2776
vn -0.8000 -0.1490 0.5812
vn -0.5862 0.6892 0.4259
vn -0.1329 -0.9864 0.0966
vn -0.7280 -0.4361 0.5290
vn -0.7280 0.4361 0.5290
vn -0.1329 0.9864 0.0966
vn -0.8999 0.4361 -0.0000
vn -0.1643 0.9864 -0.0000
vn -0.7246 -0.6892 -0.0000
vn -0.9888 0.1490 -0.0000
vn -0.4722 0.8815 -0.0000
vn -0.4722 -0.8815 -0.0000
vn -0.9888 -0.1490 -0.0000
vn -0.7246 0.6892 -0.0000
vn -0.1643 -0.9864 -0.0000
vn -0.8999 -0.4361 -0.0000
vn -0.7280 -0.4361 -0.5290
vn -0.7280 0.4361 -0.5290
vn -0.1329 0.9864 -0.0966
vn -0.5862 -0.6892 -0.4259
vn -0.8000 0.1490 -0.5812
vn -0.3821 0.8815 -0.2776
vn -0.3821 -0.8815 -0.2776
vn -0.8000 -0.1490 -0.5812
vn -0.5862 0.6892 -0.4259
vn -0.1329 -0.9864 -0.0966
vn -0.2239 0.6892 -0.6892
vn -0.0508 -0.9864 -0.1562
vn -0.2781 -0.4361 -0.8559
vn -0.2781 0.4361 -0.8559
vn -0.0508 0.9864 -0.1562
vn -0.2239 -0.6892 -0.6892
vn -0.3056 0.1490 -0.9404
vn -0.1459 0.8815 -0.4491
vn -0.1459 -0.8815 -0.4491
vn -0.3056 -0.1490 -0.9404
vt 0.600000 0.900000
vt 0.600000 0.800000
vt 0.600000 0.700000
vt 0.600000 0.600000
vt 0.600000 0.500000
vt 0.600000 0.400000
vt 0.600000 0.300000
vt 0.600000 0.200000
vt 0.600000 0.100000
vt 0.500000 0.900000
vt 0.500000 0.800000
vt 0.500000 0.700000
vt 0.500000 0.600000
vt 0.500000 0.500000
vt 0.500000 0.400000
vt 0.500000 0.300000
vt 0.500000 0.200000
vt 0.500000 0.100000
vt 0.400000 0.900000
vt 0.400000 0.800000
vt 0.400000 0.700000
vt 0.400000 0.600000
vt 0.400000 0.500000
vt 0.400000 0.400000
vt 0.400000 0.300000
vt 0.400000 0.200000
vt 0.400000 0.100000
vt 0.300000 0.900000
vt 0.300000 0.800000
vt 0.300000 0.700000
vt 0.300000 0.600000
vt 0.300000 0.500000
vt 0.300000 0.400000
vt 0.300000 0.300000
vt 0.300000 0.200000
vt 0.300000 0.100000
vt 0.200000 0.900000
vt 0.200000 0.800000
vt 0.200000 0.700000
vt 0.200000 0.600000
vt 0.200000 0.500000
vt 0.200000 0.400000
vt 0.200000 0.300000
vt 0.200000 0.200000
vt 0.200000 0.100000
vt 0.650000 1.000000
vt 0.550000 1.000000
vt 0.450000 1.000000
vt 0.350000 1.000000
vt 0.250000 1.000000
vt 0.150000 1.000000
vt 0.050000 1.000000
vt 0.950000 1.000000
vt 0.850000 1.000000
vt 0.750000 1.000000
vt 0.100000 0.900000
vt 0.100000 0.800000
vt 0.100000 0.700000
vt 0.100000 0.600000
vt 0.100000 0.500000
vt 0.100000 0.400000
vt 0.100000 0.300000
vt 0.100000 0.200000
vt 0.100000 0.100000
vt 0.000000 0.900000
vt 1.000000 0.900000
vt 0.000000 0.800000
vt 1.000000 0.800000
vt 0.000000 0.700000
vt 1.000000 0.700000
vt 0.000000 0.600000
vt 1.000000 0.600000
vt 0.000000 0.500000
vt 1.000000 0.500000
vt 0.000000 0.400000
vt 1.000000 0.400000
vt 0.000000 0.300000
vt 1.000000 0.300000
vt 0.000000 0.200000
vt 1.000000 0.200000
vt 0.000000 0.100000
vt 1.000000 0.100000
vt 0.650000 0.000000
vt 0.550000 0.000000
vt 0.450000 0.000000
vt 0.350000 0.000000
vt 0.250000 0.000000
vt 0.150000 0.000000
vt 0.050000 0.000000
vt 0.950000 0.000000
vt 0.850000 0.000000
vt 0.750000 0.000000
vt 0.900000 0.900000
vt 0.900000 0.800000
vt 0.900000 0.700000
vt 0.900000 0.600000
vt 0.900000 0.500000
vt 0.900000 0.400000
vt 0.900000 0.300000
vt 0.900000 0.200000
vt 0.900000 0.100000
vt 0.800000 0.900000
vt 0.800000 0.800000
vt 0.800000 0.700000
vt 0.800000 0.600000
vt 0.800000 0.500000
vt 0.800000 0.400000
vt 0.800000 0.300000
vt 0.800000 0.200000
vt 0.800000 0.100000
vt 0.700000 0.900000
vt 0.700000 0.800000
vt 0.700000 0.700000
vt 0.700000 0.600000
vt 0.700000 0.500000
vt 0.700000 0.400000
vt 0.700000 0.300000
vt 0.700000 0.200000
vt 0.700000 0.100000
s 0
f 87/114/1 86/113/1 3/3/1 4/4/1
f 84/111/2 46/46/2 1/1/2
f 91/118/3 90/117/3 7/7/3 8/8/3
f 88/115/4 87/114/4 4/4/4 5/5/4
f 85/112/5 84/111/5 1/1/5 2/2/5
f 92/119/6 91/118/6 8/8/6 9/9/6
f 89/116/7 88/115/7 5/5/7 6/6/7
f 86/113/8 85/112/8 2/2/8 3/3/8
f 65/83/9 92/119/9 9/9/9
f 90/117/10 89/116/10 6/6/10 7/7/10
f 1/1/11 46/47/11 10/10/11
f 8/8/12 7/7/12 16/16/12 17/17/12
f 5/5/13 4/4/13 13/13/13 14/14/13
f 2/2/14 1/1/14 10/10/14 11/11/14
f 9/9/15 8/8/15 17/17/15 18/18/15
f 6/6/16 5/5/16 14/14/16 15/15/16
f 3/3/17 2/2/17 11/11/17 12/12/17
f 65/84/18 9/9/18 18/18/18
f 7/7/19 6/6/19 15/15/19 16/16/19
f 4/4/20 3/3/20 12/12/20 13/13/20
f 16/16/21 15/15/21 24/24/21 25/25/21
f 13/13/22 12/12/22 21/21/22 22/22/22
f 10/10/23 46/48/23 19/19/23
f 17/17/24 16/16/24 25/25/24 26/26/24
f 14/14/25 13/13/25 22/22/25 23/23/25
f 11/11/26 10/10/26 19/19/26 20/20/26
f 18/18/27 17/17/27 26/26/27 27/27/27
f 15/15/28 14/14/28 23/23/28 24/24/28
f 12/12/29 11/11/29 20/20/29 21/21/29
f 65/85/30 18/18/30 27/27/30
f 21/21/31 20/20/31 29/29/31 30/30/31
f 65/86/32 27/27/32 36/36/32
f 25/25/33 24/24/33 33/33/33 34/34/33
f 22/22/34 21/21/34 30/30/34 31/31/34
f 19/19/35 46/49/35 28/28/35
f 26/26/36 25/25/36 34/34/36 35/35/36
f 23/23/37 22/22/37 31/31/37 32/32/37
f 20/20/38 19/19/38 28/28/38 29/29/38
f 27/27/39 26/26/39 35/35/39 36/36/39
f 24/24/40 23/23/40 32/32/40 33/33/40
f 33/33/41 32/32/41 41/41/41 42/42/41
f 30/30/42 29/29/42 38/38/42 39/39/42
f 65/87/43 36/36/43 45/45/43
f 34/34/44 33/33/44 42/42/44 43/43/44
f 31/31/45 30/30/45 39/39/45 40/40/45
f 28/28/46 46/50/46 37/37/46
f 35/35/47 34/34/47 43/43/47 44/44/47
f 32/32/48 31/31/48 40/40/48 41/41/48
f 29/29/49 28/28/49 37/37/49 38/38/49
f 36/36/50 35/35/50 44/44/50 45/45/50
f 38/38/51 37/37/51 47/56/51 48/57/51
f 45/45/52 44/44/52 54/63/52 55/64/52
f 42/42/53 41/41/53 51/60/53 52/61/53
f 39/39/54 38/38/54 48/57/54 49/58/54
f 65/88/55 45/45/55 55/64/55
f 43/43/56 42/42/56 52/61/56 53/62/56
f 40/40/57 39/39/57 49/58/57 50/59/57
f 37/37/58 46/51/58 47/56/58
f 44/44/59 43/43/59 53/62/59 54/63/59
f 41/41/60 40/40/60 50/59/60 51/60/60
f 54/63/61 53/62/61 62/77/61 63/79/61
f 51/60/62 50/59/62 59/71/62 60/73/62
f 48/57/63 47/56/63 56/65/63 57/67/63
f 55/64/64 54/63/64 63/79/64 64/81/64
f 52/61/65 51/60/65 60/73/65 61/75/65
f 49/58/66 48/57/66 57/67/66 58/69/66
f 65/89/67 55/64/67 64/81/67
f 53/62/68 52/61/68 61/75/68 62/77/68
f 50/59/69 49/58/69 58/69/69 59/71/69
f 47/56/70 46/52/70 56/65/70
f 59/72/71 58/70/71 68/95/71 69/96/71
f 56/66/72 46/53/72 66/93/72
f 63/80/73 62/78/73 72/99/73 73/100/73
f 60/74/74 59/72/74 69/96/74 70/97/74
f 57/68/75 56/66/75 66/93/75 67/94/75
f 64/82/76 63/80/76 73/100/76 74/101/76
f 61/76/77 60/74/77 70/97/77 71/98/77
f 58/70/78 57/68/78 67/94/78 68/95/78
f 65/90/79 64/82/79 74/101/79
f 62/78/80 61/76/80 71/98/80 72/99/80
f 72/99/81 71/98/81 80/107/81 81/108/81
f 69/96/82 68/95/82 77/104/82 78/105/82
f 66/93/83 46/54/83 75/102/83
f 73/100/84 72/99/84 81/108/84 82/109/84
f 70/97/85 69/96/85 78/105/85 79/106/85
f 67/94/86 66/93/86 75/102/86 76/103/86
f 74/101/87 73/100/87 82/109/87 83/110/87
f 71/98/88 70/97/88 79/106/88 80/107/88
f 68/95/89 67/94/89 76/103/89 77/104/89
f 65/91/90 74/101/90 83/110/90
f 77/104/91 76/103/91 85/112/91 86/113/91
f 65/92/92 83/110/92 92/119/92
f 81/108/93 80/107/93 89/116/93 90/117/93
f 78/105/94 77/104/94 86/113/94 87/114/94
f 75/102/95 46/55/95 84/111/95
f 82/109/96 81/108/96 90/117/96 91/118/96
f 79/106/97 78/105/97 87/114/97 88/115/97
f 76/103/98 75/102/98 84/111/98 85/112/98
f 83/110/99 82/109/99 91/118/99 92/119/99
f 80/107/100 79/106/100 88/115/100 89/116/100
